<mxfile host="app.diagrams.net" agent="Mozilla/5.0 (Macintosh; Intel Mac OS X 10_15_7) AppleWebKit/537.36 (KHTML, like Gecko) Chrome/137.0.0.0 Safari/537.36" version="27.2.0">
  <diagram name="페이지-1" id="CJlPuYBBIR9jpZdGRfc_">
    <mxGraphModel dx="1722" dy="887" grid="1" gridSize="10" guides="1" tooltips="1" connect="1" arrows="1" fold="1" page="1" pageScale="1" pageWidth="827" pageHeight="1169" math="0" shadow="0">
      <root>
        <mxCell id="0" />
        <mxCell id="1" parent="0" />
        <mxCell id="eyBvDNgPJvm_5abbONcy-11" style="edgeStyle=orthogonalEdgeStyle;rounded=0;orthogonalLoop=1;jettySize=auto;html=1;entryX=0;entryY=0.5;entryDx=0;entryDy=0;exitX=0.5;exitY=1;exitDx=0;exitDy=0;endArrow=none;endFill=0;" edge="1" parent="1" source="eyBvDNgPJvm_5abbONcy-1" target="eyBvDNgPJvm_5abbONcy-8">
          <mxGeometry relative="1" as="geometry" />
        </mxCell>
        <mxCell id="eyBvDNgPJvm_5abbONcy-1" value="강사" style="rounded=0;whiteSpace=wrap;html=1;" vertex="1" parent="1">
          <mxGeometry x="80" y="200" width="120" height="60" as="geometry" />
        </mxCell>
        <mxCell id="eyBvDNgPJvm_5abbONcy-3" style="edgeStyle=orthogonalEdgeStyle;rounded=0;orthogonalLoop=1;jettySize=auto;html=1;endArrow=none;endFill=0;" edge="1" parent="1" source="eyBvDNgPJvm_5abbONcy-2" target="eyBvDNgPJvm_5abbONcy-1">
          <mxGeometry relative="1" as="geometry" />
        </mxCell>
        <mxCell id="eyBvDNgPJvm_5abbONcy-2" value="회원" style="rounded=0;whiteSpace=wrap;html=1;" vertex="1" parent="1">
          <mxGeometry x="280" y="40" width="120" height="60" as="geometry" />
        </mxCell>
        <mxCell id="eyBvDNgPJvm_5abbONcy-4" value="1" style="text;html=1;align=center;verticalAlign=middle;resizable=0;points=[];autosize=1;strokeColor=none;fillColor=none;" vertex="1" parent="1">
          <mxGeometry x="250" y="40" width="30" height="30" as="geometry" />
        </mxCell>
        <mxCell id="eyBvDNgPJvm_5abbONcy-5" value="0..1" style="text;html=1;align=center;verticalAlign=middle;resizable=0;points=[];autosize=1;strokeColor=none;fillColor=none;" vertex="1" parent="1">
          <mxGeometry x="95" y="170" width="40" height="30" as="geometry" />
        </mxCell>
        <mxCell id="eyBvDNgPJvm_5abbONcy-14" style="edgeStyle=orthogonalEdgeStyle;rounded=0;orthogonalLoop=1;jettySize=auto;html=1;" edge="1" parent="1" source="eyBvDNgPJvm_5abbONcy-6" target="eyBvDNgPJvm_5abbONcy-8">
          <mxGeometry relative="1" as="geometry" />
        </mxCell>
        <mxCell id="eyBvDNgPJvm_5abbONcy-15" style="edgeStyle=orthogonalEdgeStyle;rounded=0;orthogonalLoop=1;jettySize=auto;html=1;" edge="1" parent="1" source="eyBvDNgPJvm_5abbONcy-6" target="eyBvDNgPJvm_5abbONcy-2">
          <mxGeometry relative="1" as="geometry" />
        </mxCell>
        <mxCell id="eyBvDNgPJvm_5abbONcy-30" style="edgeStyle=orthogonalEdgeStyle;rounded=0;orthogonalLoop=1;jettySize=auto;html=1;endArrow=none;endFill=0;" edge="1" parent="1" source="eyBvDNgPJvm_5abbONcy-6" target="eyBvDNgPJvm_5abbONcy-7">
          <mxGeometry relative="1" as="geometry" />
        </mxCell>
        <mxCell id="eyBvDNgPJvm_5abbONcy-6" value="수강" style="rounded=0;whiteSpace=wrap;html=1;" vertex="1" parent="1">
          <mxGeometry x="280" y="200" width="120" height="60" as="geometry" />
        </mxCell>
        <mxCell id="eyBvDNgPJvm_5abbONcy-7" value="진도" style="rounded=0;whiteSpace=wrap;html=1;" vertex="1" parent="1">
          <mxGeometry x="480" y="200" width="120" height="60" as="geometry" />
        </mxCell>
        <mxCell id="eyBvDNgPJvm_5abbONcy-20" style="edgeStyle=orthogonalEdgeStyle;rounded=0;orthogonalLoop=1;jettySize=auto;html=1;endArrow=none;endFill=0;" edge="1" parent="1" source="eyBvDNgPJvm_5abbONcy-8" target="eyBvDNgPJvm_5abbONcy-9">
          <mxGeometry relative="1" as="geometry" />
        </mxCell>
        <mxCell id="eyBvDNgPJvm_5abbONcy-8" value="강의" style="rounded=0;whiteSpace=wrap;html=1;" vertex="1" parent="1">
          <mxGeometry x="280" y="360" width="120" height="60" as="geometry" />
        </mxCell>
        <mxCell id="eyBvDNgPJvm_5abbONcy-9" value="수업" style="rounded=0;whiteSpace=wrap;html=1;" vertex="1" parent="1">
          <mxGeometry x="480" y="360" width="120" height="60" as="geometry" />
        </mxCell>
        <mxCell id="eyBvDNgPJvm_5abbONcy-10" value="섹션" style="rounded=0;whiteSpace=wrap;html=1;" vertex="1" parent="1">
          <mxGeometry x="480" y="520" width="120" height="60" as="geometry" />
        </mxCell>
        <mxCell id="eyBvDNgPJvm_5abbONcy-12" value="1" style="text;html=1;align=center;verticalAlign=middle;resizable=0;points=[];autosize=1;strokeColor=none;fillColor=none;" vertex="1" parent="1">
          <mxGeometry x="110" y="260" width="30" height="30" as="geometry" />
        </mxCell>
        <mxCell id="eyBvDNgPJvm_5abbONcy-13" value="0..*" style="text;html=1;align=center;verticalAlign=middle;resizable=0;points=[];autosize=1;strokeColor=none;fillColor=none;" vertex="1" parent="1">
          <mxGeometry x="240" y="390" width="40" height="30" as="geometry" />
        </mxCell>
        <mxCell id="eyBvDNgPJvm_5abbONcy-16" value="1" style="text;html=1;align=center;verticalAlign=middle;resizable=0;points=[];autosize=1;strokeColor=none;fillColor=none;" vertex="1" parent="1">
          <mxGeometry x="300" y="100" width="30" height="30" as="geometry" />
        </mxCell>
        <mxCell id="eyBvDNgPJvm_5abbONcy-17" value="0..*" style="text;html=1;align=center;verticalAlign=middle;resizable=0;points=[];autosize=1;strokeColor=none;fillColor=none;" vertex="1" parent="1">
          <mxGeometry x="295" y="170" width="40" height="30" as="geometry" />
        </mxCell>
        <mxCell id="eyBvDNgPJvm_5abbONcy-18" value="0..*" style="text;html=1;align=center;verticalAlign=middle;resizable=0;points=[];autosize=1;strokeColor=none;fillColor=none;" vertex="1" parent="1">
          <mxGeometry x="295" y="260" width="40" height="30" as="geometry" />
        </mxCell>
        <mxCell id="eyBvDNgPJvm_5abbONcy-19" value="1" style="text;html=1;align=center;verticalAlign=middle;resizable=0;points=[];autosize=1;strokeColor=none;fillColor=none;" vertex="1" parent="1">
          <mxGeometry x="305" y="330" width="30" height="30" as="geometry" />
        </mxCell>
        <mxCell id="eyBvDNgPJvm_5abbONcy-21" value="1" style="text;html=1;align=center;verticalAlign=middle;resizable=0;points=[];autosize=1;strokeColor=none;fillColor=none;" vertex="1" parent="1">
          <mxGeometry x="400" y="360" width="30" height="30" as="geometry" />
        </mxCell>
        <mxCell id="eyBvDNgPJvm_5abbONcy-22" value="0..*" style="text;html=1;align=center;verticalAlign=middle;resizable=0;points=[];autosize=1;strokeColor=none;fillColor=none;" vertex="1" parent="1">
          <mxGeometry x="440" y="360" width="40" height="30" as="geometry" />
        </mxCell>
        <mxCell id="eyBvDNgPJvm_5abbONcy-24" style="edgeStyle=orthogonalEdgeStyle;rounded=0;orthogonalLoop=1;jettySize=auto;html=1;endArrow=none;endFill=0;entryX=0.5;entryY=1;entryDx=0;entryDy=0;" edge="1" parent="1" source="eyBvDNgPJvm_5abbONcy-10" target="eyBvDNgPJvm_5abbONcy-9">
          <mxGeometry relative="1" as="geometry">
            <mxPoint x="450" y="390" as="sourcePoint" />
            <mxPoint x="530" y="390" as="targetPoint" />
          </mxGeometry>
        </mxCell>
        <mxCell id="eyBvDNgPJvm_5abbONcy-25" value="1" style="text;html=1;align=center;verticalAlign=middle;resizable=0;points=[];autosize=1;strokeColor=none;fillColor=none;" vertex="1" parent="1">
          <mxGeometry x="540" y="490" width="30" height="30" as="geometry" />
        </mxCell>
        <mxCell id="eyBvDNgPJvm_5abbONcy-26" value="0..*" style="text;html=1;align=center;verticalAlign=middle;resizable=0;points=[];autosize=1;strokeColor=none;fillColor=none;" vertex="1" parent="1">
          <mxGeometry x="540" y="420" width="40" height="30" as="geometry" />
        </mxCell>
        <mxCell id="eyBvDNgPJvm_5abbONcy-27" style="edgeStyle=orthogonalEdgeStyle;rounded=0;orthogonalLoop=1;jettySize=auto;html=1;exitX=0.5;exitY=1;exitDx=0;exitDy=0;endArrow=none;endFill=0;entryX=0;entryY=0.5;entryDx=0;entryDy=0;" edge="1" parent="1" source="eyBvDNgPJvm_5abbONcy-8" target="eyBvDNgPJvm_5abbONcy-10">
          <mxGeometry relative="1" as="geometry">
            <mxPoint x="220" y="550" as="sourcePoint" />
            <mxPoint x="360" y="680" as="targetPoint" />
          </mxGeometry>
        </mxCell>
        <mxCell id="eyBvDNgPJvm_5abbONcy-28" value="1" style="text;html=1;align=center;verticalAlign=middle;resizable=0;points=[];autosize=1;strokeColor=none;fillColor=none;" vertex="1" parent="1">
          <mxGeometry x="310" y="420" width="30" height="30" as="geometry" />
        </mxCell>
        <mxCell id="eyBvDNgPJvm_5abbONcy-29" value="0..*" style="text;html=1;align=center;verticalAlign=middle;resizable=0;points=[];autosize=1;strokeColor=none;fillColor=none;" vertex="1" parent="1">
          <mxGeometry x="440" y="550" width="40" height="30" as="geometry" />
        </mxCell>
        <mxCell id="eyBvDNgPJvm_5abbONcy-31" value="1" style="text;html=1;align=center;verticalAlign=middle;resizable=0;points=[];autosize=1;strokeColor=none;fillColor=none;" vertex="1" parent="1">
          <mxGeometry x="399" y="200" width="30" height="30" as="geometry" />
        </mxCell>
        <mxCell id="eyBvDNgPJvm_5abbONcy-32" value="1" style="text;html=1;align=center;verticalAlign=middle;resizable=0;points=[];autosize=1;strokeColor=none;fillColor=none;" vertex="1" parent="1">
          <mxGeometry x="450" y="200" width="30" height="30" as="geometry" />
        </mxCell>
      </root>
    </mxGraphModel>
  </diagram>
</mxfile>
